<?xml version="1.0" encoding="UTF-8"?>
<svg id="Calque_1" data-name="Calque 1" xmlns="http://www.w3.org/2000/svg" xmlns:xlink="http://www.w3.org/1999/xlink" viewBox="0 0 263.55 246.23">
  <defs>
    <filter id="drop-shadow-3" x="63.09" y="133.01" width="55.92" height="57.36" filterUnits="userSpaceOnUse">
      <feOffset dx="2.83" dy="2.83"/>
      <feGaussianBlur result="blur" stdDeviation="2.83"/>
      <feFlood flood-color="#1d1d1b" flood-opacity=".69"/>
      <feComposite in2="blur" operator="in"/>
      <feComposite in="SourceGraphic"/>
    </filter>
    <filter id="drop-shadow-4" x="165.33" y="129.41" width="54.24" height="59.04" filterUnits="userSpaceOnUse">
      <feOffset dx="2.83" dy="2.83"/>
      <feGaussianBlur result="blur-2" stdDeviation="2.83"/>
      <feFlood flood-color="#1d1d1b" flood-opacity=".69"/>
      <feComposite in2="blur-2" operator="in"/>
      <feComposite in="SourceGraphic"/>
    </filter>
  </defs>
  <path d="M111.8,167h0s0,0,0,0c-23.06,14.45-52.32-7.76-38.26-29.05h0s0,0,0,0c-27.94-3.57-29.92-37.29-2.59-44.1h0s0,0,0,0c-16.45-19.5,10.01-44.98,34.61-33.32h0s0,0,0,0c4.67-24.01,44.08-26.32,51.53-3.02h0s0,0,0,0c23.06-14.45,52.32,7.76,38.26,29.05h0s0,0,0,0c27.94,3.57,29.92,37.29,2.59,44.1h0s0,0,0,0c16.45,19.5-10.01,44.98-34.61,33.32h0s0,0,0,0c-4.67,24.01-44.08,26.32-51.53,3.02Z" style="fill: #36aaae; stroke: #0a4c4a; stroke-miterlimit: 10; stroke-width: 5px;"/>
  <circle cx="115.37" cy="112.25" r="21.73" style="fill: #fff; stroke: #0a4c4a; stroke-miterlimit: 10; stroke-width: 3px;"/>
  <circle cx="153.93" cy="112.25" r="21.73" style="fill: #fff; stroke: #0a4c4a; stroke-miterlimit: 10; stroke-width: 3px;"/>
  <g>
    <ellipse cx="137.1" cy="211.8" rx="40.37" ry="8.73" style="fill: #9d9d9c; stroke: #3c3c3c; stroke-miterlimit: 10; stroke-width: 2px;"/>
    <path d="M137.1,220.53c22.29,0,40.37-3.91,40.37-8.73-24.55,9.73-69.31,8.84-80.73,0,0,4.82,18.07,8.73,40.37,8.73Z" style="fill: #706f6f; stroke: #3c3c3c; stroke-miterlimit: 10; stroke-width: 2px;"/>
  </g>
  <g style="filter: url(#drop-shadow-3);">
    <ellipse cx="88.19" cy="158.88" rx="19.38" ry="16.83" transform="translate(-91.02 128.82) rotate(-51.45)" style="fill: #36aaae; stroke: #0a4c4a; stroke-miterlimit: 10; stroke-width: 3px;"/>
    <path d="M102.22,152.53c.18.88.51,2.92.05,5.46-1.13,6.31-3.53,10.78-6.82,13.91-1.72,1.63-5.08,4.98-9.92,5.29-.66.04-1.27.02-1.79-.02.3.04.61.08.92.1.26.02.52.04.79.05.03,0,.05,0,.08,0,5.67.06,11.65-2.71,15.82-7.95,6.67-8.37,6.19-19.85-1.08-25.65-1.9-1.51-4.08-2.48-6.38-2.94-.46-.06-.93-.12-1.4-.14,1.74.94,8.28,4.74,9.73,11.89Z" style="fill: #0a4c4a; stroke: #0a4c4a; stroke-miterlimit: 10; stroke-width: 3px;"/>
  </g>
  <g>
    <path d="M102.94,170.3c-.2.2-.4.4-.6.61.55-.12,1.1-.27,1.65-.43-.35-.06-.71-.12-1.06-.18Z" style="fill: #0a4c4a;"/>
    <path d="M201.07,129.71c13.83-4.9,18.72-17.34,15.26-27.67-3.41,9.62-8.54,19-15.26,27.67Z" style="fill: #0a4c4a;"/>
    <path d="M180.11,150.3c-20.56,15.42-44.37,22.43-66.22,21.3,10.85,18.24,45.1,14.66,49.44-7.62h0s0,0,0,0c23.96,11.36,49.7-12.54,35.78-31.81-5.42,6.57-11.76,12.7-19,18.13Z" style="fill: #0a4c4a;"/>
  </g>
  <g style="filter: url(#drop-shadow-4);">
    <ellipse cx="189.62" cy="156.03" rx="16.83" ry="19.38" transform="translate(-20.16 28.39) rotate(-8.13)" style="fill: #36aaae; stroke: #0a4c4a; stroke-miterlimit: 10; stroke-width: 3px;"/>
    <path d="M206.28,153.65c.86,6.04-.79,11.76-4.07,15.82.3-.42.62-.92.92-1.49,2.17-4.19,1.07-8.68.57-10.94-.96-4.31-3.48-8.57-8.18-12.68-1.89-1.65-3.76-2.41-4.58-2.7-6.69-2.38-13.14,1.17-14.8,2.15,2.52-3.72,6.28-6.34,10.74-6.98,2.12-.3,4.2-.12,6.18.45,1.38.43,2.5.94,3.24,1.32.05.03.28.14.55.3,4.83,2.85,8.5,8.21,9.43,14.74Z" style="fill: #0a4c4a; stroke: #0a4c4a; stroke-miterlimit: 10; stroke-width: 3px;"/>
  </g>
  <path d="M115.37,93.09l2.5,8.63c.99,3.4,3.39,6.22,6.6,7.73l5.92,2.8-5.92,2.8c-3.21,1.51-5.61,4.33-6.6,7.73l-2.5,8.63-2.5-8.63c-.99-3.4-3.39-6.22-6.6-7.73l-5.92-2.8,5.92-2.8c3.21-1.51,5.61-4.33,6.6-7.73l2.5-8.63Z" style="fill: #0a4c4a; stroke: #1d1d1b; stroke-miterlimit: 10; stroke-width: .25px;"/>
  <path d="M153.93,93.09l2.5,8.63c.99,3.4,3.39,6.22,6.6,7.73l5.92,2.8-5.92,2.8c-3.21,1.51-5.61,4.33-6.6,7.73l-2.5,8.63-2.5-8.63c-.99-3.4-3.39-6.22-6.6-7.73l-5.92-2.8,5.92-2.8c3.21-1.51,5.61-4.33,6.6-7.73l2.5-8.63Z" style="fill: #0a4c4a; stroke: #1d1d1b; stroke-miterlimit: 10; stroke-width: .25px;"/>
  <ellipse cx="41.05" cy="64.86" rx="7.3" ry="10.79" transform="translate(-30.83 91.8) rotate(-78.21)" style="fill: #a6c83e;"/>
  <ellipse cx="54.76" cy="48.71" rx="7.3" ry="10.79" transform="translate(-18.4 52.98) rotate(-45)" style="fill: #a6c83e;"/>
  <ellipse cx="74.53" cy="38.14" rx="7.3" ry="10.79" transform="translate(-7.68 22.28) rotate(-16.18)" style="fill: #a6c83e;"/>
  <polygon points="202.88 27.98 203.49 38.47 211.04 44.28 201.61 45.62 195.93 54.46 195.32 43.97 187.77 38.17 197.2 36.82 202.88 27.98" style="fill: #a6c83e;"/>
</svg>